<?xml version="1.0" encoding="UTF-8"?>
<svg id="logo-white" xmlns="http://www.w3.org/2000/svg" width="400" height="100" viewBox="0 0 400 100">
  <g>
    <path d="m394.07,55.19h-1.72v-2.02h1.93c.44,0,.76.12.99.29.2.18.29.41.29.7,0,.2-.06.38-.15.56-.12.18-.26.29-.47.35-.23.09-.5.12-.88.12Zm1.11.93c-.12-.09-.29-.2-.5-.29.58-.09,1.02-.26,1.29-.56.29-.32.44-.67.44-1.11,0-.32-.09-.64-.26-.91-.18-.29-.38-.47-.67-.58s-.7-.18-1.23-.18h-2.72v6.11h.82v-2.72h.93c.2,0,.35.03.44.03.12.03.23.09.38.18.12.06.23.2.41.41.15.18.32.47.58.85l.79,1.26h1.02l-1.05-1.67c-.23-.32-.44-.58-.67-.82Z" fill="#fff"/>
    <path d="m393.75,61.04c-2.92,0-5.32-2.4-5.32-5.32s2.4-5.32,5.32-5.32,5.32,2.37,5.32,5.32-2.37,5.32-5.32,5.32Zm0-11.57c-3.42,0-6.22,2.8-6.22,6.25s2.8,6.22,6.22,6.22,6.25-2.8,6.25-6.22-2.8-6.25-6.25-6.25Z" fill="#fff"/>
  </g>
  <path d="m0,99.47v-19.4h2.34v7.95h12.65v-7.95h2.34v19.4h-2.34v-9.15H2.34v9.15H0Zm22.21,0l8.5-19.4h2.48l8.44,19.4h-2.66l-2.05-4.76h-10.11l-1.99,4.76h-2.63Zm13.76-7.01l-3.51-8.15c-.26-.67-.47-1.23-.56-1.72-.2.73-.41,1.34-.61,1.84l-3.45,8.04h8.12Zm10.46,7.01v-19.37h2.4v19.37h-2.4Zm9.17,0v-19.37h11.19c2.07,0,3.62.53,4.62,1.55.96,1.05,1.46,2.43,1.46,4.15,0,3.1-1.46,4.91-4.41,5.49l6.05,8.18h-3.04l-5.58-7.74h-7.95v7.74h-2.34Zm11.37-17.06h-9.03v7.01h8.12c1.93,0,3.18-.47,3.83-1.46.38-.58.56-1.26.56-2.07,0-.76-.15-1.46-.5-2.07-.32-.61-.79-.99-1.34-1.2-.38-.15-.93-.2-1.64-.2Zm36.49,14.78v2.19c-.47.15-.85.23-1.14.23-.5,0-.96-.15-1.43-.41-.29-.18-.88-.64-1.72-1.34-1.96,1.4-3.97,2.1-6.05,2.1-1.96,0-3.48-.56-4.59-1.67-1.02-1.05-1.52-2.34-1.52-3.92,0-1.49.44-2.66,1.37-3.54.53-.5,1.55-1.08,3.04-1.75-1.08-1.23-1.64-2.51-1.64-3.77s.41-2.37,1.23-3.18,1.9-1.23,3.24-1.23,2.4.47,3.18,1.34c.7.82,1.05,1.78,1.05,2.95,0,.93-.23,1.78-.7,2.51-.58.91-1.52,1.61-2.8,2.1,1.14,1.37,2.16,2.51,3.07,3.45l1.17,1.2c.23-.47.58-1.2.96-2.19.18-.56.29-1.23.35-2.02l1.99-.09c-.12,1.31-.32,2.34-.56,3.1-.26.76-.67,1.64-1.29,2.63.88.88,1.64,1.29,2.25,1.29h.53Zm-9.73-8.94c1.69-.58,2.51-1.58,2.51-2.98,0-.73-.2-1.31-.58-1.75-.41-.41-.91-.61-1.46-.61-.61,0-1.14.2-1.52.64-.41.44-.61.96-.61,1.58,0,1.02.56,2.07,1.67,3.13Zm-.99,2.57c-2.28.73-3.42,1.87-3.42,3.36,0,1.02.38,1.87,1.14,2.54.73.67,1.72,1.02,2.98,1.02,1.52,0,2.92-.47,4.15-1.43-1.08-1.08-2.07-2.16-2.98-3.24-.09-.09-.38-.47-.93-1.11-.53-.61-.85-.99-.93-1.14Zm24.89,8.65v-19.37h10.55c1.23,0,2.16.09,2.86.29,1.08.29,1.93.91,2.51,1.78.53.82.82,1.81.82,2.98,0,1.64-.5,2.83-1.49,3.54-.41.29-.67.44-.82.44,2.07.79,3.13,2.43,3.13,4.94,0,1.67-.5,2.95-1.49,3.92-.64.67-1.52,1.11-2.66,1.31-.64.12-1.61.18-2.86.18h-10.55Zm10.52-17.12h-8.18v5.96h8.59c1.02,0,1.75-.15,2.22-.44.76-.53,1.17-1.34,1.17-2.51,0-1.05-.38-1.84-1.08-2.4-.53-.41-1.43-.61-2.72-.61Zm.73,8.18h-8.91v6.69h8.91c1.37,0,2.37-.29,2.98-.91s.91-1.43.91-2.45c0-1.08-.35-1.93-.99-2.54-.56-.53-1.52-.79-2.89-.79Zm12.48,8.94v-19.37h15.19v2.4h-12.86v5.79h12.51v2.31h-12.51v6.49h13.44v2.4h-15.78Zm19.31,0l8.5-19.4h2.48l8.44,19.4h-2.69l-2.02-4.76h-10.11l-1.99,4.76h-2.63Zm13.76-7.01l-3.51-8.15c-.29-.67-.47-1.23-.56-1.72-.2.73-.41,1.34-.64,1.84l-3.42,8.04h8.12Zm10.46-12.36h2.34v11.51c0,1.17.09,2.02.23,2.6.23.82.7,1.49,1.4,2.02,1.17.88,2.69,1.31,4.56,1.31,1.55,0,2.83-.26,3.92-.85.93-.5,1.55-1.23,1.87-2.19.18-.56.23-1.4.23-2.54v-11.86h2.34v11.63c0,1.43-.09,2.51-.32,3.27-.35,1.34-1.08,2.43-2.19,3.27-1.46,1.11-3.42,1.67-5.87,1.67s-4.56-.61-6.08-1.87c-1.05-.82-1.75-1.9-2.07-3.18-.23-.79-.35-1.93-.35-3.39v-11.4Zm22.12,2.31v-2.31h15.78v2.31h-6.75v17.06h-2.34v-17.06h-6.69Zm19.02-2.31h2.98l5.73,8.44c.29.44.5.88.67,1.34.18-.41.38-.79.64-1.17l5.84-8.62h3.01l-8.33,11.89v7.48h-2.34v-7.54l-8.21-11.83Zm32.46,19.37v-19.37h15.19v2.4h-12.86v5.79h12.51v2.31h-12.51v6.49h13.44v2.4h-15.78Zm20.69-5.79v-1.96h7.33v1.96h-7.33Zm11.66,1.87l2.13-1.05c.29.44.67.82,1.14,1.2,1.58,1.26,3.62,1.87,6.14,1.87,1.78,0,3.16-.35,4.12-1.05.99-.7,1.49-1.67,1.49-2.86s-.58-2.05-1.72-2.51c-.7-.29-2.07-.56-4.12-.76-2.31-.23-3.83-.44-4.47-.58-.99-.23-1.75-.67-2.34-1.29-.79-.85-1.17-1.93-1.17-3.24,0-2.34,1.11-3.97,3.3-4.88,1.2-.53,2.69-.79,4.41-.79,2.75,0,4.94.64,6.57,1.96.58.47,1.14,1.11,1.64,1.96l-2.1.99c-.2-.2-.53-.56-.96-.99-1.29-1.08-2.98-1.61-5.08-1.61-1.72,0-3.04.26-3.97.79-.96.58-1.46,1.37-1.46,2.43,0,.56.18,1.05.5,1.49.41.56,1.4.93,2.95,1.11.99.12,2.45.29,4.44.5.91.12,1.64.23,2.13.38,2.51.7,3.77,2.37,3.77,5.03,0,1.23-.26,2.31-.82,3.24-1.23,2.05-3.65,3.07-7.25,3.07-1.52,0-2.92-.18-4.24-.58-2.25-.67-3.94-1.93-5.03-3.8Zm23.29,3.92v-19.4h2.34v7.95h12.65v-7.95h2.34v19.4h-2.34v-9.15h-12.65v9.15h-2.34Zm33.28-19.84c2.92,0,5.35.93,7.22,2.8,1.9,1.93,2.86,4.47,2.86,7.63s-.99,5.64-2.95,7.45c-1.81,1.67-4.15,2.48-6.95,2.48s-5.03-.7-6.75-2.13c-2.22-1.84-3.33-4.47-3.33-7.83s1.02-5.99,3.1-7.89c1.84-1.67,4.12-2.51,6.81-2.51Zm-.23,2.37c-1.99.06-3.65.67-4.97,1.84-1.61,1.37-2.4,3.39-2.4,6.05,0,1.99.5,3.62,1.46,4.94,1.37,1.84,3.48,2.78,6.31,2.78s4.79-.88,6.08-2.69c.99-1.34,1.49-3.07,1.49-5.11,0-2.48-.76-4.44-2.31-5.87-1.46-1.37-3.36-2.02-5.67-1.93Zm16.27-1.9h10.05c2.28,0,3.97.56,5.03,1.64,1.08,1.08,1.61,2.51,1.61,4.3,0,1.29-.29,2.4-.88,3.36-.61,1.02-1.52,1.69-2.69,2.05-.64.2-1.61.29-2.83.29h-7.89v7.74h-2.4v-19.37Zm2.4,9.32h7.57c1.37,0,2.34-.2,2.95-.67.82-.64,1.23-1.58,1.23-2.83,0-.99-.26-1.78-.79-2.37-.61-.76-1.84-1.14-3.65-1.14h-7.3v7.01Z" fill="#fff"/>
  <path d="m48.15,60.31h-10.81L7.16,34.27v26.03H0V.85h7.16v25.54L36.76.85h10.55L12.71,30.24l35.44,30.07Zm279.77-23.29V.85h7.07v26.62l-7.07,9.55Zm51.63,23.29h-7.07V10.43l-36.9,49.88h-8.68L371.02.85h8.53v59.46Zm-213.06-23.29V.85h7.07v26.62l-7.07,9.55Zm51.66,23.29h-7.1V10.43l-36.87,49.88h-8.71L209.61.85h8.53v59.46ZM284.73,6.72c-13.85,0-23.52,9.82-23.52,23.87s9.67,23.84,23.52,23.84,23.52-9.79,23.52-23.84-9.67-23.87-23.52-23.87Zm0,54.46c-17.82,0-30.77-12.89-30.77-30.59S266.91,0,284.73,0s30.77,12.86,30.77,30.59-12.94,30.59-30.77,30.59Zm-43.18-.88h-7.16V.85h7.16v59.46Zm-88.41,0h-43.39V.85h43.39v6.75h-36.23v19.2h30.04v6.72h-30.04v20.07h36.23v6.72Zm-74.71,0h-7.16V7.6h-20.28V.85h47.45v6.75h-20.01v52.71Z" fill="#fff"/>
</svg>