<?xml version="1.0" standalone="no"?>
<!DOCTYPE svg PUBLIC "-//W3C//DTD SVG 20010904//EN"
 "http://www.w3.org/TR/2001/REC-SVG-20010904/DTD/svg10.dtd">
<svg version="1.0" xmlns="http://www.w3.org/2000/svg"
 width="256.000000pt" height="67.000000pt" viewBox="0 0 256.000000 67.000000"
 preserveAspectRatio="xMidYMid meet">

<g transform="translate(0.000000,67.000000) scale(0.100000,-0.100000)"
 stroke="none">
<path d="M1607 616 c-68 -25 -107 -76 -107 -141 0 -82 45 -128 174 -176 79
-29 106 -57 106 -108 0 -59 -33 -81 -120 -81 -37 0 -86 7 -109 15 -41 14 -42
14 -51 -11 -15 -39 -13 -41 37 -58 54 -19 175 -21 224 -5 74 25 117 94 104
170 -11 62 -48 97 -161 150 -57 26 -107 56 -113 67 -45 85 63 150 182 109 44
-15 45 -15 56 9 17 38 14 42 -41 59 -63 18 -130 19 -181 1z"/>
<path d="M2257 615 c-76 -26 -114 -89 -104 -167 8 -59 52 -99 158 -143 97 -40
122 -65 122 -117 0 -53 -40 -78 -124 -78 -40 0 -85 7 -106 15 -40 17 -48 13
-58 -27 -7 -26 -4 -28 51 -44 80 -23 207 -16 256 14 66 41 85 121 48 196 -22
46 -55 69 -152 110 -105 45 -138 89 -104 142 30 45 106 57 185 29 41 -14 42
-14 51 11 15 39 13 42 -42 59 -63 18 -130 19 -181 0z"/>
<path d="M212 589 c-65 -32 -99 -66 -135 -133 -17 -32 -22 -58 -22 -121 0 -70
4 -87 30 -134 56 -102 142 -151 264 -151 160 0 280 122 281 285 0 215 -223
352 -418 254z m243 -23 c91 -42 147 -127 149 -226 1 -76 -26 -140 -80 -190
-59 -54 -105 -73 -179 -73 -220 0 -344 242 -212 415 72 94 211 126 322 74z"/>
<path d="M266 556 c-96 -36 -156 -120 -156 -218 0 -128 82 -220 209 -235 91
-11 193 45 237 128 57 110 4 254 -115 314 -46 23 -128 28 -175 11z m152 -32
c77 -32 131 -111 132 -190 0 -27 -10 -61 -28 -95 -67 -128 -247 -146 -339 -34
-134 162 41 400 235 319z"/>
<path d="M262 493 c-96 -47 -128 -166 -69 -254 54 -80 157 -104 242 -56 113
64 113 236 -1 303 -49 29 -122 32 -172 7z m162 -32 c45 -30 66 -70 66 -126 0
-91 -58 -148 -153 -149 -147 0 -201 197 -75 274 43 26 123 27 162 1z"/>
<path d="M720 335 l0 -285 40 0 40 0 2 217 3 218 91 -123 c49 -67 116 -165
149 -217 55 -89 61 -95 92 -95 l33 0 0 286 0 285 -37 -3 -38 -3 -3 -204 -2
-204 -58 85 c-71 103 -139 194 -205 271 -39 45 -55 57 -78 57 l-29 0 0 -285z"/>
<path d="M1310 335 l0 -285 40 0 40 0 0 285 0 285 -40 0 -40 0 0 -285z"/>
<path d="M1960 335 l0 -285 40 0 40 0 0 285 0 285 -40 0 -40 0 0 -285z"/>
</g>
</svg>
