<svg xmlns="http://www.w3.org/2000/svg" viewBox="0 0 362.83 158.74"><defs><style>.cls-1{fill:#f37a1f;}.cls-2{fill:#fff;}</style></defs><title>Element 4</title><g id="Ebene_2" data-name="Ebene 2"><g id="Ebene_1-2" data-name="Ebene 1"><rect class="cls-1" width="362.83" height="158.74"/><polygon class="cls-2" points="173.82 49.94 118.99 49.94 114.6 64.3 132.98 64.3 119.37 108.8 137.25 108.8 150.85 64.3 169.43 64.3 173.82 49.94"/><path class="cls-2" d="M55.39,59.08,50.63,74.65C48.51,81.58,52.37,86.7,59.2,86.7h22.3a1.44,1.44,0,0,1,1.32,1.91l-1.2,3.92a3,3,0,0,1-2.49,1.91H44.08L39.69,108.8h45.2c5,0,9.24-2.31,11.42-9.44l4.52-14.79c2.14-7-1.84-12-8.07-12H70.35c-1.24,0-1.73-.9-1.39-2l1.2-3.92a2.94,2.94,0,0,1,2.92-2.31h32.24l4.39-14.36H66.92C60.81,49.94,57,53.85,55.39,59.08Z"/><polygon class="cls-2" points="285.08 94.44 298.69 49.94 280.71 49.94 262.72 108.8 318.76 108.8 323.15 94.44 285.08 94.44"/><polygon class="cls-2" points="251.36 49.94 244.45 72.54 223.06 72.54 229.97 49.94 212.79 49.94 194.8 108.8 211.97 108.8 218.85 86.3 240.24 86.3 233.37 108.8 251.01 108.8 269 49.94 251.36 49.94"/><polygon class="cls-2" points="183.12 49.94 165.13 108.8 183.11 108.8 201.1 49.94 183.12 49.94"/></g></g></svg>